# Blender v2.90.0 OBJ File: ''
# www.blender.org
mtllib каркас.mtl
o Cube
v 1.000000 1.000000 -1.000000
v 1.000000 -1.000000 -1.000000
v 1.000000 1.000000 1.000000
v 1.000000 -1.000000 1.000000
v -1.000000 1.000000 -1.000000
v -1.000000 -1.000000 -1.000000
v -1.000000 1.000000 1.000000
v -1.000000 -1.000000 1.000000
v 1.000000 19.447226 -1.000000
v 1.000000 19.447226 1.000000
v -1.000000 19.447226 -1.000000
v -1.000000 19.447226 1.000000
v 1.000000 21.229927 -1.000000
v 1.000000 21.229927 1.000000
v -1.000000 21.229927 -1.000000
v -1.000000 21.229927 1.000000
v 1.000000 1.000000 -35.274033
v 1.000000 -1.000000 -35.274033
v -1.000000 1.000000 -35.274033
v -1.000000 -1.000000 -35.274033
v 1.000000 1.000000 -36.980740
v 1.000000 -1.000000 -36.980740
v -1.000000 1.000000 -36.980740
v -1.000000 -1.000000 -36.980740
v 1.000000 19.307274 -35.274033
v -1.000000 19.307274 -35.274033
v 1.000000 19.307274 -36.980740
v -1.000000 19.307274 -36.980740
v 1.000000 21.182653 -35.274033
v -1.000000 21.182653 -35.274033
v 1.000000 21.182653 -36.980740
v -1.000000 21.182653 -36.980740
v -18.456442 1.000000 -1.000000
v -18.456442 -1.000000 -1.000000
v -18.456442 1.000000 1.000000
v -18.456442 -1.000000 1.000000
v -20.408886 1.000000 -1.000000
v -20.408886 -1.000000 -1.000000
v -20.408886 1.000000 1.000000
v -20.408886 -1.000000 1.000000
v -18.456442 19.307270 -1.000000
v -18.456442 19.307270 1.000000
v -20.408886 19.307270 -1.000000
v -20.408886 19.307270 1.000000
v -18.456442 21.361256 -1.000000
v -18.456442 21.361256 1.000000
v -20.408886 21.361256 -1.000000
v -20.408886 21.361256 1.000000
v -18.456442 1.000000 -35.005779
v -18.456442 -1.000000 -35.005779
v -20.408886 1.000000 -35.005779
v -20.408886 -1.000000 -35.005779
v -18.456442 1.000000 -36.766598
v -18.456442 -1.000000 -36.766598
v -20.408886 1.000000 -36.766598
v -20.408886 -1.000000 -36.766598
v -18.501938 1.000000 -35.274033
v -18.501938 -1.000000 -35.274033
v -18.501938 1.000000 -36.980740
v -18.501938 -1.000000 -36.980740
v -20.416899 1.000000 -35.274033
v -20.416899 -1.000000 -35.274033
v -20.416899 1.000000 -36.980740
v -20.416899 -1.000000 -36.980740
v -18.501938 19.381592 -35.274033
v -18.501938 19.381592 -36.980740
v -20.416899 19.381592 -35.274033
v -20.416899 19.381592 -36.980740
v -18.501938 21.189617 -35.274033
v -18.501938 21.189617 -36.980740
v -20.416899 21.189617 -35.274033
v -20.416899 21.189617 -36.980740
v -18.501938 19.381592 0.938251
v -20.416899 19.381592 0.938251
v -18.501938 21.189617 0.938251
v -20.416899 21.189617 0.938251
v 1.000000 19.447226 -37.039375
v -1.000000 19.447226 -37.039375
v 1.000000 21.229927 -37.039375
v -1.000000 21.229927 -37.039375
v -18.456442 19.307270 -37.122162
v -20.408886 19.307270 -37.122162
v -18.456442 21.361256 -37.122162
v -20.408886 21.361256 -37.122162
v -20.230221 19.307274 -35.274033
v -20.230221 19.307274 -36.980740
v -20.230221 21.182653 -35.274033
v -20.230221 21.182653 -36.980740
v -20.230221 19.447226 -37.039375
v -20.230221 21.229927 -37.039375
v 0.904329 19.307270 -1.000000
v 0.904329 19.307270 1.000000
v 0.904329 21.361256 -1.000000
v 0.904329 21.361256 1.000000
v 0.858833 19.381592 0.938251
v 0.858833 21.189617 0.938251
vt 0.625000 0.500000
vt 0.625000 0.250000
vt 0.625000 0.250000
vt 0.625000 0.500000
vt 0.375000 0.750000
vt 0.625000 0.750000
vt 0.625000 1.000000
vt 0.375000 1.000000
vt 0.125000 0.500000
vt 0.125000 0.750000
vt 0.125000 0.750000
vt 0.125000 0.500000
vt 0.375000 0.500000
vt 0.625000 0.500000
vt 0.625000 0.250000
vt 0.625000 0.250000
vt 0.625000 0.500000
vt 0.625000 0.750000
vt 0.625000 1.000000
vt 0.625000 0.000000
vt 0.625000 0.000000
vt 0.625000 0.500000
vt 0.875000 0.500000
vt 0.875000 0.750000
vt 0.625000 0.750000
vt 0.625000 0.000000
vt 0.625000 0.250000
vt 0.625000 1.000000
vt 0.375000 0.250000
vt 0.625000 0.250000
vt 0.375000 0.250000
vt 0.375000 0.500000
vt 0.375000 0.250000
vt 0.125000 0.500000
vt 0.375000 0.250000
vt 0.625000 0.250000
vt 0.625000 0.500000
vt 0.375000 0.500000
vt 0.125000 0.500000
vt 0.625000 0.500000
vt 0.625000 0.500000
vt 0.625000 0.250000
vt 0.625000 0.250000
vt 0.625000 0.250000
vt 0.625000 0.250000
vt 0.625000 0.250000
vt 0.625000 0.250000
vt 0.625000 0.500000
vt 0.625000 0.500000
vt 0.625000 0.000000
vt 0.625000 0.250000
vt 0.625000 0.250000
vt 0.625000 0.000000
vt 0.375000 0.250000
vt 0.625000 1.000000
vt 0.375000 1.000000
vt 0.375000 0.000000
vt 0.625000 0.000000
vt 0.625000 0.250000
vt 0.375000 0.250000
vt 0.625000 1.000000
vt 0.375000 1.000000
vt 0.625000 0.250000
vt 0.625000 0.250000
vt 0.125000 0.750000
vt 0.125000 0.500000
vt 0.625000 0.250000
vt 0.625000 0.250000
vt 0.625000 0.250000
vt 0.625000 0.250000
vt 0.625000 0.250000
vt 0.625000 1.000000
vt 0.625000 1.000000
vt 0.625000 0.000000
vt 0.625000 0.000000
vt 0.625000 0.250000
vt 0.625000 0.250000
vt 0.625000 0.000000
vt 0.625000 1.000000
vt 0.625000 1.000000
vt 0.625000 0.250000
vt 0.625000 0.250000
vt 0.625000 0.250000
vt 0.625000 0.250000
vt 0.375000 0.250000
vt 0.125000 0.500000
vt 0.125000 0.500000
vt 0.375000 0.250000
vt 0.375000 0.250000
vt 0.375000 0.250000
vt 0.125000 0.500000
vt 0.125000 0.500000
vt 0.625000 0.250000
vt 0.375000 0.250000
vt 0.375000 0.250000
vt 0.625000 0.250000
vt 0.125000 0.500000
vt 0.125000 0.500000
vt 0.375000 0.250000
vt 0.625000 0.250000
vt 0.625000 0.250000
vt 0.625000 0.250000
vt 0.125000 0.500000
vt 0.125000 0.500000
vt 0.625000 0.250000
vt 0.625000 0.250000
vt 0.625000 0.250000
vt 0.625000 0.250000
vt 0.625000 0.250000
vt 0.625000 0.250000
vt 0.625000 0.250000
vt 0.625000 0.250000
vt 0.625000 0.250000
vt 0.625000 0.500000
vt 0.875000 0.500000
vt 0.625000 0.250000
vt 0.625000 0.250000
vt 0.625000 0.250000
vt 0.625000 0.250000
vt 0.625000 0.250000
vt 0.625000 0.250000
vt 0.625000 0.000000
vt 0.625000 0.250000
vt 0.625000 0.250000
vt 0.625000 0.000000
vt 0.625000 1.000000
vt 0.625000 1.000000
vn 0.0000 0.0000 -1.0000
vn 0.0000 0.0000 1.0000
vn 0.0000 -1.0000 0.0000
vn 1.0000 0.0000 0.0000
vn 0.0000 1.0000 0.0000
vn -1.0000 0.0000 0.0000
usemtl Material
s off
f 1/1/1 5/2/1 11/3/1 9/4/1
f 4/5/2 3/6/2 7/7/2 8/8/2
f 6/9/3 8/10/3 36/11/3 34/12/3
f 6/9/3 2/13/3 4/5/3 8/10/3
f 2/13/4 1/1/4 3/6/4 4/5/4
f 5/2/5 1/1/5 17/14/5 19/15/5
f 9/4/3 11/3/3 78/16/3 77/17/3
f 7/7/2 3/6/2 10/18/2 12/19/2
f 5/2/6 7/20/6 12/21/6 11/3/6
f 3/6/4 1/1/4 9/4/4 10/18/4
f 13/22/5 15/23/5 16/24/5 14/25/5
f 10/18/4 9/4/4 13/22/4 14/25/4
f 11/3/6 12/21/6 16/26/6 15/27/6
f 12/19/2 10/18/2 14/25/2 16/28/2
f 20/29/2 19/15/2 57/30/2 58/31/2
f 1/1/4 2/13/4 18/32/4 17/14/4
f 6/33/6 5/2/6 19/15/6 20/29/6
f 2/13/3 6/9/3 20/34/3 18/32/3
f 24/35/1 23/36/1 21/37/1 22/38/1
f 18/32/3 20/34/3 24/39/3 22/38/3
f 17/14/4 21/37/4 27/40/4 25/41/4
f 17/14/4 18/32/4 22/38/4 21/37/4
f 30/42/5 32/43/5 88/44/5 87/45/5
f 21/37/1 23/36/1 28/46/1 27/40/1
f 19/15/2 17/14/2 25/41/2 26/47/2
f 23/36/6 19/15/6 26/47/6 28/46/6
f 30/42/5 29/48/5 31/49/5 32/43/5
f 26/47/2 25/41/2 29/48/2 30/42/2
f 25/41/4 27/40/4 31/49/4 29/48/4
f 27/40/1 28/46/1 32/43/1 31/49/1
f 35/50/4 33/51/4 41/52/4 42/53/4
f 7/20/5 5/2/5 33/51/5 35/50/5
f 5/2/1 6/33/1 34/54/1 33/51/1
f 8/8/2 7/7/2 35/55/2 36/56/2
f 40/57/6 39/58/6 37/59/6 38/60/6
f 36/56/2 35/55/2 39/61/2 40/62/2
f 37/59/5 33/51/5 49/63/5 51/64/5
f 34/12/3 36/11/3 40/65/3 38/66/3
f 73/67/1 75/68/1 96/69/1 95/70/1
f 33/51/1 37/59/1 43/71/1 41/52/1
f 39/61/2 35/55/2 42/72/2 44/73/2
f 37/59/6 39/58/6 44/74/6 43/71/6
f 46/75/5 45/76/5 47/77/5 48/78/5
f 44/73/2 42/72/2 46/79/2 48/80/2
f 43/71/6 44/74/6 48/78/6 47/77/6
f 45/76/4 41/52/4 81/81/4 83/82/4
f 51/64/5 49/63/5 53/83/5 55/84/5
f 38/60/6 37/59/6 51/64/6 52/85/6
f 34/12/3 38/66/3 52/86/3 50/87/3
f 33/51/4 34/54/4 50/88/4 49/63/4
f 53/83/1 54/89/1 56/90/1 55/84/1
f 49/63/4 50/88/4 54/89/4 53/83/4
f 50/87/3 52/86/3 56/91/3 54/92/3
f 52/85/6 51/64/6 55/84/6 56/90/6
f 59/93/1 60/94/1 64/95/1 63/96/1
f 24/39/3 20/34/3 58/97/3 60/98/3
f 19/15/5 23/36/5 59/93/5 57/30/5
f 23/36/1 24/35/1 60/94/1 59/93/1
f 62/99/6 61/100/6 63/96/6 64/95/6
f 63/96/6 61/100/6 67/101/6 68/102/6
f 58/31/2 57/30/2 61/100/2 62/99/2
f 60/98/3 58/97/3 62/103/3 64/104/3
f 67/101/3 65/105/3 73/67/3 74/106/3
f 57/30/4 59/93/4 66/107/4 65/105/4
f 59/93/1 63/96/1 68/102/1 66/107/1
f 61/100/2 57/30/2 65/105/2 67/101/2
f 69/108/5 70/109/5 72/110/5 71/111/5
f 68/102/6 67/101/6 71/111/6 72/110/6
f 66/107/1 68/102/1 72/110/1 70/109/1
f 65/105/4 66/107/4 70/109/4 69/108/4
f 74/106/2 73/67/2 75/68/2 76/112/2
f 65/105/4 69/108/4 75/68/4 73/67/4
f 71/111/6 67/101/6 74/106/6 76/112/6
f 69/108/5 71/111/5 76/112/5 75/68/5
f 77/17/1 78/16/1 80/113/1 79/114/1
f 11/3/6 15/27/6 80/113/6 78/16/6
f 13/22/4 9/4/4 77/17/4 79/114/4
f 15/23/5 13/22/5 79/114/5 80/115/5
f 81/81/1 82/116/1 84/117/1 83/82/1
f 47/77/5 45/76/5 83/82/5 84/117/5
f 43/71/6 47/77/6 84/117/6 82/116/6
f 41/52/3 43/71/3 82/116/3 81/81/3
f 86/118/6 85/119/6 87/45/6 88/44/6
f 28/46/3 26/47/3 85/119/3 86/118/3
f 32/43/1 28/46/1 86/118/1 88/44/1
f 78/16/2 80/113/2 90/120/2 89/121/2
f 26/47/2 30/42/2 87/45/2 85/119/2
f 92/122/4 91/123/4 93/124/4 94/125/4
f 42/53/3 41/52/3 91/123/3 92/122/3
f 41/52/1 45/76/1 93/124/1 91/123/1
f 45/76/5 46/75/5 94/125/5 93/124/5
f 46/79/2 42/72/2 92/126/2 94/127/2
