# Blender v2.90.0 OBJ File: ''
# www.blender.org
mtllib рамка.mtl
o Cube
v 0.580000 1.000000 -1.000000
v 0.580000 -1.000000 -1.000000
v 0.580000 1.000000 1.000000
v 0.580000 -1.000000 1.000000
v -0.580000 1.000000 -1.000000
v -0.580000 -1.000000 -1.000000
v -0.580000 1.000000 1.000000
v -0.580000 -1.000000 1.000000
v 0.580000 16.318348 -1.000000
v 0.580000 16.318348 1.000000
v -0.580000 16.318348 -1.000000
v -0.580000 16.318348 1.000000
v 0.580000 18.413157 -1.000000
v 0.580000 18.413157 1.000000
v -0.580000 18.413157 -1.000000
v -0.580000 18.413157 1.000000
v 0.580000 16.318348 -10.668512
v -0.580000 16.318348 -10.668512
v 0.580000 18.413157 -10.668512
v -0.580000 18.413157 -10.668512
v 0.580000 16.318348 -12.761904
v -0.580000 16.318348 -12.761904
v 0.580000 18.413157 -12.761904
v -0.580000 18.413157 -12.761904
v 0.580000 0.851601 -10.668512
v -0.580000 0.851601 -10.668512
v 0.580000 0.851601 -12.761904
v -0.580000 0.851601 -12.761904
v 0.580000 -0.881106 -10.668512
v -0.580000 -0.881106 -10.668512
v 0.580000 -0.881106 -12.761904
v -0.580000 -0.881106 -12.761904
v 0.580000 1.000000 -12.766056
v 0.580000 -1.000000 -12.766056
v -0.580000 1.000000 -12.766056
v -0.580000 -1.000000 -12.766056
vt 0.625000 0.750000
vt 0.625000 0.500000
vt 0.625000 0.500000
vt 0.625000 0.750000
vt 0.375000 0.750000
vt 0.625000 1.000000
vt 0.375000 1.000000
vt 0.375000 0.000000
vt 0.625000 0.000000
vt 0.625000 0.250000
vt 0.375000 0.250000
vt 0.125000 0.500000
vt 0.375000 0.500000
vt 0.125000 0.750000
vt 0.625000 0.250000
vt 0.375000 0.250000
vt 0.625000 0.250000
vt 0.625000 0.000000
vt 0.625000 0.000000
vt 0.625000 0.250000
vt 0.625000 1.000000
vt 0.625000 0.500000
vt 0.875000 0.500000
vt 0.875000 0.750000
vt 0.625000 0.750000
vt 0.625000 1.000000
vt 0.625000 0.500000
vt 0.625000 0.500000
vt 0.875000 0.500000
vt 0.625000 0.500000
vt 0.875000 0.500000
vt 0.625000 0.250000
vt 0.625000 0.250000
vt 0.625000 0.500000
vt 0.625000 0.250000
vt 0.625000 0.250000
vt 0.625000 0.500000
vt 0.625000 0.250000
vt 0.625000 0.500000
vt 0.625000 0.500000
vt 0.625000 0.500000
vt 0.625000 0.250000
vt 0.625000 0.250000
vt 0.625000 0.250000
vt 0.625000 0.500000
vt 0.375000 0.500000
vt 0.125000 0.500000
vn 1.0000 0.0000 0.0000
vn 0.0000 0.0000 1.0000
vn -1.0000 0.0000 0.0000
vn 0.0000 -1.0000 0.0000
vn 0.0000 0.0000 -1.0000
vn 0.0000 1.0000 0.0000
usemtl Material
s off
f 3/1/1 1/2/1 9/3/1 10/4/1
f 4/5/2 3/1/2 7/6/2 8/7/2
f 8/8/3 7/9/3 5/10/3 6/11/3
f 6/12/4 2/13/4 4/5/4 8/14/4
f 2/13/1 1/2/1 3/1/1 4/5/1
f 6/11/3 5/10/3 35/15/3 36/16/3
f 11/17/3 12/18/3 16/19/3 15/20/3
f 1/2/5 5/10/5 11/17/5 9/3/5
f 7/6/2 3/1/2 10/4/2 12/21/2
f 5/10/3 7/9/3 12/18/3 11/17/3
f 13/22/6 15/23/6 16/24/6 14/25/6
f 12/21/2 10/4/2 14/25/2 16/26/2
f 13/22/1 9/3/1 17/27/1 19/28/1
f 10/4/1 9/3/1 13/22/1 14/25/1
f 20/29/6 19/28/6 23/30/6 24/31/6
f 11/17/3 15/20/3 20/32/3 18/33/3
f 15/23/6 13/22/6 19/28/6 20/29/6
f 9/3/4 11/17/4 18/33/4 17/27/4
f 21/34/5 22/35/5 24/36/5 23/30/5
f 18/33/3 20/32/3 24/36/3 22/35/3
f 22/35/5 21/34/5 27/37/5 28/38/5
f 19/28/1 17/27/1 21/34/1 23/30/1
f 27/37/1 25/39/1 29/40/1 31/41/1
f 21/34/1 17/27/1 25/39/1 27/37/1
f 17/27/2 18/33/2 26/42/2 25/39/2
f 18/33/3 22/35/3 28/38/3 26/42/3
f 29/40/4 30/43/4 32/44/4 31/41/4
f 28/38/5 27/37/5 31/41/5 32/44/5
f 26/42/3 28/38/3 32/44/3 30/43/3
f 25/39/2 26/42/2 30/43/2 29/40/2
f 36/16/5 35/15/5 33/45/5 34/46/5
f 2/13/4 6/12/4 36/47/4 34/46/4
f 5/10/6 1/2/6 33/45/6 35/15/6
f 1/2/1 2/13/1 34/46/1 33/45/1
o Cube.001
v -0.157841 -0.143361 -0.501267
v -0.157841 17.776638 -0.501267
v -0.157841 -0.143361 -11.501266
v -0.157841 17.776638 -11.501266
v 0.042159 -0.143361 -0.501267
v 0.042159 17.776638 -0.501267
v 0.042159 -0.143361 -11.501266
v 0.042159 17.776638 -11.501266
vt 0.375000 0.000000
vt 0.625000 0.000000
vt 0.625000 0.250000
vt 0.375000 0.250000
vt 0.625000 0.500000
vt 0.375000 0.500000
vt 0.625000 0.750000
vt 0.375000 0.750000
vt 0.625000 1.000000
vt 0.375000 1.000000
vt 0.125000 0.500000
vt 0.125000 0.750000
vt 0.875000 0.500000
vt 0.875000 0.750000
vn -1.0000 0.0000 0.0000
vn 0.0000 0.0000 -1.0000
vn 1.0000 0.0000 0.0000
vn 0.0000 0.0000 1.0000
vn 0.0000 -1.0000 0.0000
vn 0.0000 1.0000 0.0000
usemtl None
s off
f 37/48/7 38/49/7 40/50/7 39/51/7
f 39/51/8 40/50/8 44/52/8 43/53/8
f 43/53/9 44/52/9 42/54/9 41/55/9
f 41/55/10 42/54/10 38/56/10 37/57/10
f 39/58/11 43/53/11 41/55/11 37/59/11
f 44/52/12 40/60/12 38/61/12 42/54/12
